<svg width="78" height="78" viewBox="0 0 78 78" fill="none" xmlns="http://www.w3.org/2000/svg">
<g filter="url(#filter0_dd)">
<path d="M19 24C19 21.2386 21.2386 19 24 19H54C56.7614 19 59 21.2386 59 24V54C59 56.7614 56.7614 59 54 59H24C21.2386 59 19 56.7614 19 54V24Z" fill="#303234"/>
</g>
<g filter="url(#filter1_d)">
<path d="M39.0033 31.3084C34.7468 31.3084 31.3134 34.7425 31.3134 39C31.3134 43.2575 34.7468 46.6916 39.0033 46.6916C43.2599 46.6916 46.6933 43.2575 46.6933 39C46.6933 34.7425 43.2599 31.3084 39.0033 31.3084ZM39.0033 44.0006C36.2527 44.0006 34.0039 41.758 34.0039 39C34.0039 36.242 36.246 33.9994 39.0033 33.9994C41.7607 33.9994 44.0028 36.242 44.0028 39C44.0028 41.758 41.754 44.0006 39.0033 44.0006ZM48.8015 30.9938C48.8015 31.9912 47.9983 32.7878 47.0078 32.7878C46.0106 32.7878 45.2142 31.9845 45.2142 30.9938C45.2142 30.003 46.0173 29.1997 47.0078 29.1997C47.9983 29.1997 48.8015 30.003 48.8015 30.9938ZM53.8946 32.8146C53.7808 30.4114 53.232 28.2826 51.4718 26.5287C49.7183 24.7749 47.5901 24.2259 45.1874 24.1054C42.7111 23.9649 35.2889 23.9649 32.8126 24.1054C30.4166 24.2192 28.2883 24.7682 26.5282 26.522C24.768 28.2759 24.2259 30.4047 24.1054 32.8079C23.9649 35.2847 23.9649 42.7086 24.1054 45.1854C24.2192 47.5886 24.768 49.7174 26.5282 51.4713C28.2883 53.2251 30.4099 53.7741 32.8126 53.8946C35.2889 54.0351 42.7111 54.0351 45.1874 53.8946C47.5901 53.7808 49.7183 53.2318 51.4718 51.4713C53.2253 49.7174 53.7741 47.5886 53.8946 45.1854C54.0351 42.7086 54.0351 35.2914 53.8946 32.8146ZM50.6955 47.843C50.1735 49.1551 49.1629 50.1659 47.8444 50.6947C45.8701 51.478 41.1852 51.2972 39.0033 51.2972C36.8215 51.2972 32.1299 51.4713 30.1623 50.6947C28.8505 50.1726 27.8399 49.1618 27.3112 47.843C26.5282 45.8682 26.7089 41.1823 26.7089 39C26.7089 36.8177 26.5349 32.1251 27.3112 30.157C27.8332 28.8449 28.8438 27.8341 30.1623 27.3053C32.1366 26.522 36.8215 26.7028 39.0033 26.7028C41.1852 26.7028 45.8767 26.5287 47.8444 27.3053C49.1562 27.8274 50.1668 28.8382 50.6955 30.157C51.4785 32.1318 51.2978 36.8177 51.2978 39C51.2978 41.1823 51.4785 45.8749 50.6955 47.843Z" fill="white"/>
</g>
<defs>
<filter id="filter0_dd" x="0" y="0" width="78" height="78" filterUnits="userSpaceOnUse" color-interpolation-filters="sRGB">
<feFlood flood-opacity="0" result="BackgroundImageFix"/>
<feColorMatrix in="SourceAlpha" type="matrix" values="0 0 0 0 0 0 0 0 0 0 0 0 0 0 0 0 0 0 127 0" result="hardAlpha"/>
<feOffset dx="-3" dy="-3"/>
<feGaussianBlur stdDeviation="8"/>
<feColorMatrix type="matrix" values="0 0 0 0 0.2875 0 0 0 0 0.2875 0 0 0 0 0.2875 0 0 0 0.4 0"/>
<feBlend mode="normal" in2="BackgroundImageFix" result="effect1_dropShadow"/>
<feColorMatrix in="SourceAlpha" type="matrix" values="0 0 0 0 0 0 0 0 0 0 0 0 0 0 0 0 0 0 127 0" result="hardAlpha"/>
<feOffset dx="3" dy="3"/>
<feGaussianBlur stdDeviation="8"/>
<feColorMatrix type="matrix" values="0 0 0 0 0 0 0 0 0 0 0 0 0 0 0 0 0 0 0.4 0"/>
<feBlend mode="normal" in2="effect1_dropShadow" result="effect2_dropShadow"/>
<feBlend mode="normal" in="SourceGraphic" in2="effect2_dropShadow" result="shape"/>
</filter>
<filter id="filter1_d" x="22" y="22" width="38" height="38" filterUnits="userSpaceOnUse" color-interpolation-filters="sRGB">
<feFlood flood-opacity="0" result="BackgroundImageFix"/>
<feColorMatrix in="SourceAlpha" type="matrix" values="0 0 0 0 0 0 0 0 0 0 0 0 0 0 0 0 0 0 127 0" result="hardAlpha"/>
<feOffset dx="2" dy="2"/>
<feGaussianBlur stdDeviation="2"/>
<feColorMatrix type="matrix" values="0 0 0 0 0 0 0 0 0 0 0 0 0 0 0 0 0 0 0.25 0"/>
<feBlend mode="normal" in2="BackgroundImageFix" result="effect1_dropShadow"/>
<feBlend mode="normal" in="SourceGraphic" in2="effect1_dropShadow" result="shape"/>
</filter>
</defs>
</svg>
