<svg width="78" height="78" viewBox="0 0 78 78" fill="none" xmlns="http://www.w3.org/2000/svg">
<g filter="url(#filter0_dd)">
<path d="M19 24C19 21.2386 21.2386 19 24 19H54C56.7614 19 59 21.2386 59 24V54C59 56.7614 56.7614 59 54 59H24C21.2386 59 19 56.7614 19 54V24Z" fill="#303234"/>
</g>
<g filter="url(#filter1_d)">
<path d="M49.5067 28.3594C46.7009 25.5469 42.9643 24 38.9933 24C30.7969 24 24.1272 30.6696 24.1272 38.8661C24.1272 41.4844 24.8103 44.0424 26.1094 46.2991L24 54L31.8817 51.9308C34.0513 53.1161 36.4955 53.7388 38.9866 53.7388H38.9933C47.183 53.7388 54 47.0692 54 38.8728C54 34.9018 52.3125 31.1719 49.5067 28.3594ZM38.9933 51.2344C36.7701 51.2344 34.5937 50.6384 32.6987 49.5134L32.25 49.2455L27.5759 50.471L28.8214 45.9107L28.5268 45.442C27.2879 43.4732 26.6384 41.2031 26.6384 38.8661C26.6384 32.0558 32.183 26.5112 39 26.5112C42.3013 26.5112 45.4018 27.7969 47.7321 30.1339C50.0625 32.471 51.4955 35.5714 51.4888 38.8728C51.4888 45.6897 45.8036 51.2344 38.9933 51.2344ZM45.7701 41.9799C45.4018 41.7924 43.5737 40.8951 43.2321 40.7746C42.8906 40.6473 42.6429 40.5871 42.3951 40.9621C42.1473 41.3371 41.4375 42.1674 41.2165 42.4219C41.0022 42.6696 40.7812 42.7031 40.4129 42.5156C38.2299 41.4241 36.7969 40.567 35.3571 38.096C34.9754 37.4397 35.7388 37.4866 36.4487 36.067C36.5692 35.8192 36.5089 35.6049 36.4152 35.4174C36.3214 35.2299 35.5781 33.4018 35.2701 32.6585C34.9688 31.9353 34.6607 32.0357 34.433 32.0223C34.2188 32.0089 33.971 32.0089 33.7232 32.0089C33.4754 32.0089 33.0737 32.1027 32.7321 32.471C32.3906 32.846 31.433 33.7433 31.433 35.5714C31.433 37.3996 32.7656 39.1674 32.9464 39.4152C33.1339 39.6629 35.5647 43.4129 39.2946 45.0268C41.6518 46.0446 42.5759 46.1317 43.7545 45.9576C44.471 45.8504 45.9509 45.0603 46.2589 44.1897C46.567 43.3192 46.567 42.5759 46.4732 42.4219C46.3862 42.2545 46.1384 42.1607 45.7701 41.9799Z" fill="white"/>
</g>
<defs>
<filter id="filter0_dd" x="0" y="0" width="78" height="78" filterUnits="userSpaceOnUse" color-interpolation-filters="sRGB">
<feFlood flood-opacity="0" result="BackgroundImageFix"/>
<feColorMatrix in="SourceAlpha" type="matrix" values="0 0 0 0 0 0 0 0 0 0 0 0 0 0 0 0 0 0 127 0" result="hardAlpha"/>
<feOffset dx="-3" dy="-3"/>
<feGaussianBlur stdDeviation="8"/>
<feColorMatrix type="matrix" values="0 0 0 0 0.2875 0 0 0 0 0.2875 0 0 0 0 0.2875 0 0 0 0.4 0"/>
<feBlend mode="normal" in2="BackgroundImageFix" result="effect1_dropShadow"/>
<feColorMatrix in="SourceAlpha" type="matrix" values="0 0 0 0 0 0 0 0 0 0 0 0 0 0 0 0 0 0 127 0" result="hardAlpha"/>
<feOffset dx="3" dy="3"/>
<feGaussianBlur stdDeviation="8"/>
<feColorMatrix type="matrix" values="0 0 0 0 0 0 0 0 0 0 0 0 0 0 0 0 0 0 0.4 0"/>
<feBlend mode="normal" in2="effect1_dropShadow" result="effect2_dropShadow"/>
<feBlend mode="normal" in="SourceGraphic" in2="effect2_dropShadow" result="shape"/>
</filter>
<filter id="filter1_d" x="22" y="22" width="38" height="38" filterUnits="userSpaceOnUse" color-interpolation-filters="sRGB">
<feFlood flood-opacity="0" result="BackgroundImageFix"/>
<feColorMatrix in="SourceAlpha" type="matrix" values="0 0 0 0 0 0 0 0 0 0 0 0 0 0 0 0 0 0 127 0" result="hardAlpha"/>
<feOffset dx="2" dy="2"/>
<feGaussianBlur stdDeviation="2"/>
<feColorMatrix type="matrix" values="0 0 0 0 0 0 0 0 0 0 0 0 0 0 0 0 0 0 0.25 0"/>
<feBlend mode="normal" in2="BackgroundImageFix" result="effect1_dropShadow"/>
<feBlend mode="normal" in="SourceGraphic" in2="effect1_dropShadow" result="shape"/>
</filter>
</defs>
</svg>
