<svg width="48" height="48" viewBox="0 0 48 48" fill="none" xmlns="http://www.w3.org/2000/svg">
<g filter="url(#filter0_d)">
<path d="M22.0045 11.7445C16.3291 11.7445 11.7513 16.3233 11.7513 22C11.7513 27.6767 16.3291 32.2555 22.0045 32.2555C27.6799 32.2555 32.2577 27.6767 32.2577 22C32.2577 16.3233 27.6799 11.7445 22.0045 11.7445ZM22.0045 28.6674C18.3369 28.6674 15.3385 25.6773 15.3385 22C15.3385 18.3227 18.3279 15.3326 22.0045 15.3326C25.681 15.3326 28.6704 18.3227 28.6704 22C28.6704 25.6773 25.6721 28.6674 22.0045 28.6674ZM35.0686 11.325C35.0686 12.6549 33.9978 13.7171 32.6771 13.7171C31.3475 13.7171 30.2856 12.646 30.2856 11.325C30.2856 10.004 31.3564 8.93295 32.6771 8.93295C33.9978 8.93295 35.0686 10.004 35.0686 11.325ZM41.8595 13.7528C41.7078 10.5485 40.976 7.71014 38.6291 5.37164C36.2911 3.03314 33.4534 2.30124 30.2499 2.14058C26.9481 1.95314 17.0519 1.95314 13.7501 2.14058C10.5555 2.29231 7.71779 3.02421 5.37089 5.36271C3.02398 7.70122 2.30117 10.5396 2.14055 13.7438C1.95315 17.0463 1.95315 26.9448 2.14055 30.2472C2.29225 33.4515 3.02398 36.2899 5.37089 38.6284C7.71779 40.9669 10.5466 41.6988 13.7501 41.8594C17.0519 42.0469 26.9481 42.0469 30.2499 41.8594C33.4534 41.7077 36.2911 40.9758 38.6291 38.6284C40.9671 36.2899 41.6988 33.4515 41.8595 30.2472C42.0468 26.9448 42.0468 17.0552 41.8595 13.7528ZM37.594 33.7907C36.8979 35.5401 35.5505 36.8879 33.7925 37.593C31.1601 38.6373 24.9136 38.3963 22.0045 38.3963C19.0954 38.3963 12.8399 38.6284 10.2164 37.593C8.46737 36.8968 7.11991 35.549 6.41495 33.7907C5.37089 31.1576 5.61182 24.9097 5.61182 22C5.61182 19.0903 5.37981 12.8334 6.41495 10.2093C7.11099 8.45989 8.45845 7.11213 10.2164 6.40701C12.8489 5.36271 19.0954 5.6037 22.0045 5.6037C24.9136 5.6037 31.169 5.37164 33.7925 6.40701C35.5416 7.1032 36.889 8.45096 37.594 10.2093C38.638 12.8424 38.3971 19.0903 38.3971 22C38.3971 24.9097 38.638 31.1666 37.594 33.7907Z" fill="white"/>
</g>
<defs>
<filter id="filter0_d" x="0" y="0" width="48" height="48" filterUnits="userSpaceOnUse" color-interpolation-filters="sRGB">
<feFlood flood-opacity="0" result="BackgroundImageFix"/>
<feColorMatrix in="SourceAlpha" type="matrix" values="0 0 0 0 0 0 0 0 0 0 0 0 0 0 0 0 0 0 127 0" result="hardAlpha"/>
<feOffset dx="2" dy="2"/>
<feGaussianBlur stdDeviation="2"/>
<feColorMatrix type="matrix" values="0 0 0 0 0 0 0 0 0 0 0 0 0 0 0 0 0 0 0.25 0"/>
<feBlend mode="normal" in2="BackgroundImageFix" result="effect1_dropShadow"/>
<feBlend mode="normal" in="SourceGraphic" in2="effect1_dropShadow" result="shape"/>
</filter>
</defs>
</svg>
